<svg width="574" height="465" viewBox="0 0 574 465" fill="none" xmlns="http://www.w3.org/2000/svg">
<path d="M118.228 117.828L113.207 179.239C112.552 189.172 106.678 198.431 97.4423 204.076L50.7979 232.593C32.6585 243.683 29.5499 266.748 44.3884 280.134L96.4619 307.739C105.721 316.091 108.688 309.969 103.615 321.436L92.6597 346.2C81.8725 370.583 106.433 394.114 133.551 385.377L298.993 332.071C308.201 329.103 318.176 329.833 326.386 334.069L408.582 376.505C432.071 388.633 461.96 370.519 459.612 345.582L454.608 314.189C452.769 294.672 471.177 296.987 492.536 298.792C519.932 301.107 539.96 273.732 526.617 252.211L510.284 225.866C503.63 215.132 505.041 201.461 513.845 191.394L520.389 183.911C539.681 161.849 520.801 130.816 490.756 135.208L433.672 143.552C418.07 145.832 403.33 138.005 398.177 124.704L364.729 57.9993C355.729 34.7769 321.18 31.8997 305.474 53.0639L260.807 113.258C249.538 128.445 226.893 132.185 211.783 121.359L173.258 93.7577C152.095 78.5977 119.883 92.6898 118.228 117.828Z" fill="#8F93F3"/>
<ellipse cx="315.086" cy="307.617" rx="181" ry="14.5" fill="#11121D"/>
<path d="M141.693 167.676C141.68 167.64 141.667 167.607 141.656 167.573C141.311 166.604 141.75 165.568 142.638 165.258C143.527 164.948 144.528 165.472 144.869 166.45C144.874 166.463 144.88 166.476 144.885 166.49C145.738 168.682 156.11 181.613 171.803 194.946C185.159 206.293 204.924 220.093 223.231 221.391C239.354 222.533 291.351 213.512 298.9 194.575C291.245 194.154 283.922 193.279 277.104 191.941C250.565 186.73 234.827 175.244 231.595 158.728C228.796 144.433 232.994 133.304 243.413 127.394C257.833 119.213 280.035 123.486 293.958 137.121C301.962 144.959 313.485 162.154 303.934 191.112C325.758 191.731 326.953 188.754 349.555 182.424C361.586 178.118 382.198 160.998 394.178 152.476C392.102 151.541 390.143 150.492 388.296 149.328C379.282 143.644 373.539 135.523 371.226 125.191C367.435 108.256 372.26 94.1685 384.132 87.5076C394.886 81.4742 408.477 83.1858 416.45 91.5762C420.436 95.7714 422.75 101.391 423.137 107.834C423.569 115.008 421.678 123.118 417.517 131.942C414.266 138.833 408.836 145.406 401.533 151.454C406.296 152.894 411.874 153.895 418.406 154.273C435.901 155.288 456.332 151.099 473.056 143.07C490.511 134.688 501.995 123.115 504.563 111.313C504.775 110.338 505.701 109.78 506.629 110.066C507.556 110.352 508.137 111.374 507.924 112.352C505.086 125.39 493.26 137.498 474.625 146.445C457.443 154.695 436.437 158.997 418.429 157.951C410.924 157.517 404.156 156.222 398.189 154.089C385.679 163.485 362.086 182.774 350.614 185.987C327.243 192.533 325.165 195.537 302.646 194.741C302.568 194.947 302.49 195.152 302.41 195.358C294.302 216.34 241.111 226.335 223.211 225.064C203.975 223.699 183.528 209.469 169.76 197.772C154.942 185.186 143.157 171.437 141.693 167.676ZM301.163 154.078C298.629 147.565 294.876 142.866 291.715 139.767C279.058 127.372 258.179 123.29 245.173 130.672C236.124 135.806 232.501 145.577 234.97 158.189C238.833 177.892 263.291 185.526 277.529 188.323C284.61 189.713 292.247 190.593 300.246 190.974C305.786 175.026 304.593 162.894 301.163 154.078ZM418.208 100.603C417.265 98.1796 415.899 96.0093 414.106 94.1244C407.333 86.9976 395.195 85.5652 385.875 90.7948C370.757 99.2766 372.937 117.225 374.575 124.546C376.28 132.165 381.526 143.765 397.446 150.04C405.31 143.896 411.092 137.179 414.416 130.129C419.927 118.452 421.189 108.264 418.208 100.603Z" fill="#11121D"/>
<path d="M182.666 284.237V268.837L228.446 203.317H251.266V267.157H263.586V284.237H251.266V304.117H231.666V284.237H182.666ZM232.926 224.317L204.226 267.157H232.926V224.317ZM275.564 251.757C275.564 235.611 278.457 222.964 284.244 213.817C290.124 204.671 299.831 200.097 313.364 200.097C326.898 200.097 336.558 204.671 342.344 213.817C348.224 222.964 351.164 235.611 351.164 251.757C351.164 267.997 348.224 280.737 342.344 289.977C336.558 299.217 326.898 303.837 313.364 303.837C299.831 303.837 290.124 299.217 284.244 289.977C278.457 280.737 275.564 267.997 275.564 251.757ZM331.844 251.757C331.844 244.851 331.378 239.064 330.444 234.397C329.604 229.637 327.831 225.764 325.124 222.777C322.511 219.791 318.591 218.297 313.364 218.297C308.138 218.297 304.171 219.791 301.464 222.777C298.851 225.764 297.077 229.637 296.144 234.397C295.304 239.064 294.884 244.851 294.884 251.757C294.884 258.851 295.304 264.824 296.144 269.677C296.984 274.437 298.757 278.311 301.464 281.297C304.171 284.191 308.138 285.637 313.364 285.637C318.591 285.637 322.558 284.191 325.264 281.297C327.971 278.311 329.744 274.437 330.584 269.677C331.424 264.824 331.844 258.851 331.844 251.757ZM364.732 284.237V268.837L410.512 203.317H433.332V267.157H445.652V284.237H433.332V304.117H413.732V284.237H364.732ZM414.992 224.317L386.292 267.157H414.992V224.317Z" fill="#11121D"/>
<path d="M171.384 283.089V268.349L215.202 205.637H237.044V266.741H248.836V283.089H237.044V302.117H218.284V283.089H171.384ZM219.49 225.737L192.02 266.741H219.49V225.737ZM264.779 252.001C264.779 236.547 267.549 224.442 273.087 215.687C278.715 206.933 288.006 202.555 300.959 202.555C313.913 202.555 323.159 206.933 328.697 215.687C334.325 224.442 337.139 236.547 337.139 252.001C337.139 267.545 334.325 279.739 328.697 288.583C323.159 297.427 313.913 301.849 300.959 301.849C288.006 301.849 278.715 297.427 273.087 288.583C267.549 279.739 264.779 267.545 264.779 252.001ZM318.647 252.001C318.647 245.391 318.201 239.852 317.307 235.385C316.503 230.829 314.806 227.122 312.215 224.263C309.714 221.405 305.962 219.975 300.959 219.975C295.957 219.975 292.16 221.405 289.569 224.263C287.068 227.122 285.371 230.829 284.477 235.385C283.673 239.852 283.271 245.391 283.271 252.001C283.271 258.791 283.673 264.508 284.477 269.153C285.281 273.709 286.979 277.417 289.569 280.275C292.16 283.045 295.957 284.429 300.959 284.429C305.962 284.429 309.759 283.045 312.349 280.275C314.94 277.417 316.637 273.709 317.441 269.153C318.245 264.508 318.647 258.791 318.647 252.001ZM354.604 283.089V268.349L398.422 205.637H420.264V266.741H432.056V283.089H420.264V302.117H401.504V283.089H354.604ZM402.71 225.737L375.24 266.741H402.71V225.737Z" fill="white"/>
<path d="M171.384 283.089H169.384V285.089H171.384V283.089ZM171.384 268.349L169.744 267.204L169.384 267.72V268.349H171.384ZM215.202 205.637V203.637H214.159L213.562 204.492L215.202 205.637ZM237.044 205.637H239.044V203.637H237.044V205.637ZM237.044 266.741H235.044V268.741H237.044V266.741ZM248.836 266.741H250.836V264.741H248.836V266.741ZM248.836 283.089V285.089H250.836V283.089H248.836ZM237.044 283.089V281.089H235.044V283.089H237.044ZM237.044 302.117V304.117H239.044V302.117H237.044ZM218.284 302.117H216.284V304.117H218.284V302.117ZM218.284 283.089H220.284V281.089H218.284V283.089ZM219.49 225.737H221.49V219.158L217.828 224.624L219.49 225.737ZM192.02 266.741L190.358 265.628L188.272 268.741H192.02V266.741ZM219.49 266.741V268.741H221.49V266.741H219.49ZM173.384 283.089V268.349H169.384V283.089H173.384ZM173.023 269.495L216.841 206.783L213.562 204.492L169.744 267.204L173.023 269.495ZM215.202 207.637H237.044V203.637H215.202V207.637ZM235.044 205.637V266.741H239.044V205.637H235.044ZM237.044 268.741H248.836V264.741H237.044V268.741ZM246.836 266.741V283.089H250.836V266.741H246.836ZM248.836 281.089H237.044V285.089H248.836V281.089ZM235.044 283.089V302.117H239.044V283.089H235.044ZM237.044 300.117H218.284V304.117H237.044V300.117ZM220.284 302.117V283.089H216.284V302.117H220.284ZM218.284 281.089H171.384V285.089H218.284V281.089ZM217.828 224.624L190.358 265.628L193.681 267.854L221.151 226.85L217.828 224.624ZM192.02 268.741H219.49V264.741H192.02V268.741ZM221.49 266.741V225.737H217.49V266.741H221.49ZM273.087 215.687L271.405 214.606L271.401 214.612L271.397 214.618L273.087 215.687ZM328.697 215.687L327.007 216.756L327.011 216.763L327.015 216.769L328.697 215.687ZM328.697 288.583L327.01 287.509L327.006 287.516L327.002 287.522L328.697 288.583ZM273.087 288.583L271.392 289.645L271.396 289.651L271.4 289.657L273.087 288.583ZM317.307 235.385L315.338 235.733L315.342 235.755L315.346 235.777L317.307 235.385ZM312.215 224.263L310.71 225.58L310.722 225.593L310.733 225.606L312.215 224.263ZM289.569 224.263L288.087 222.92L288.076 222.933L288.064 222.946L289.569 224.263ZM284.477 235.385L282.515 235L282.512 235.016L282.509 235.031L284.477 235.385ZM284.477 269.153L282.507 269.494L282.508 269.501L284.477 269.153ZM289.569 280.275L288.087 281.618L288.098 281.63L288.109 281.642L289.569 280.275ZM312.349 280.275L313.81 281.642L313.821 281.63L313.831 281.618L312.349 280.275ZM317.441 269.153L319.411 269.501L319.412 269.494L317.441 269.153ZM266.779 252.001C266.779 236.751 269.518 225.07 274.778 216.756L271.397 214.618C265.58 223.813 262.779 236.342 262.779 252.001H266.779ZM274.77 216.769C279.937 208.73 288.496 204.555 300.959 204.555V200.555C287.516 200.555 277.493 205.135 271.405 214.606L274.77 216.769ZM300.959 204.555C313.424 204.555 321.929 208.73 327.007 216.756L330.388 214.618C324.388 205.135 314.402 200.555 300.959 200.555V204.555ZM327.015 216.769C332.358 225.08 335.139 236.755 335.139 252.001H339.139C339.139 236.338 336.293 223.804 330.38 214.606L327.015 216.769ZM335.139 252.001C335.139 267.337 332.358 279.106 327.01 287.509L330.385 289.657C336.293 280.372 339.139 267.753 339.139 252.001H335.139ZM327.002 287.522C321.92 295.636 313.415 299.849 300.959 299.849V303.849C314.411 303.849 324.397 299.218 330.392 289.645L327.002 287.522ZM300.959 299.849C288.505 299.849 279.946 295.636 274.775 287.509L271.4 289.657C277.485 299.218 287.507 303.849 300.959 303.849V299.849ZM274.782 287.522C269.518 279.115 266.779 267.342 266.779 252.001H262.779C262.779 267.749 265.579 280.363 271.392 289.645L274.782 287.522ZM320.647 252.001C320.647 245.312 320.196 239.632 319.269 234.993L315.346 235.777C316.205 240.071 316.647 245.469 316.647 252.001H320.647ZM319.277 235.038C318.421 230.185 316.588 226.109 313.697 222.92L310.733 225.606C313.025 228.134 314.586 231.473 315.338 235.733L319.277 235.038ZM313.721 222.946C310.728 219.526 306.345 217.975 300.959 217.975V221.975C305.579 221.975 308.7 223.283 310.71 225.58L313.721 222.946ZM300.959 217.975C295.57 217.975 291.162 219.528 288.087 222.92L291.051 225.606C293.158 223.282 296.344 221.975 300.959 221.975V217.975ZM288.064 222.946C285.285 226.123 283.461 230.175 282.515 235L286.44 235.77C287.281 231.483 288.852 228.121 291.075 225.58L288.064 222.946ZM282.509 235.031C281.677 239.654 281.271 245.32 281.271 252.001H285.271C285.271 245.461 285.67 240.05 286.446 235.739L282.509 235.031ZM281.271 252.001C281.271 258.86 281.677 264.699 282.507 269.494L286.448 268.812C285.67 264.317 285.271 258.721 285.271 252.001H281.271ZM282.508 269.501C283.364 274.353 285.197 278.429 288.087 281.618L291.051 278.932C288.76 276.404 287.199 273.065 286.447 268.806L282.508 269.501ZM288.109 281.642C291.188 284.933 295.588 286.429 300.959 286.429V282.429C296.325 282.429 293.132 281.156 291.03 278.909L288.109 281.642ZM300.959 286.429C306.33 286.429 310.731 284.933 313.81 281.642L310.889 278.909C308.787 281.156 305.594 282.429 300.959 282.429V286.429ZM313.831 281.618C316.722 278.429 318.555 274.353 319.411 269.501L315.472 268.806C314.72 273.065 313.159 276.404 310.867 278.932L313.831 281.618ZM319.412 269.494C320.242 264.699 320.647 258.86 320.647 252.001H316.647C316.647 258.721 316.249 264.317 315.471 268.812L319.412 269.494ZM354.604 283.089H352.604V285.089H354.604V283.089ZM354.604 268.349L352.965 267.204L352.604 267.72V268.349H354.604ZM398.422 205.637V203.637H397.38L396.783 204.492L398.422 205.637ZM420.264 205.637H422.264V203.637H420.264V205.637ZM420.264 266.741H418.264V268.741H420.264V266.741ZM432.056 266.741H434.056V264.741H432.056V266.741ZM432.056 283.089V285.089H434.056V283.089H432.056ZM420.264 283.089V281.089H418.264V283.089H420.264ZM420.264 302.117V304.117H422.264V302.117H420.264ZM401.504 302.117H399.504V304.117H401.504V302.117ZM401.504 283.089H403.504V281.089H401.504V283.089ZM402.71 225.737H404.71V219.158L401.049 224.624L402.71 225.737ZM375.24 266.741L373.579 265.628L371.493 268.741H375.24V266.741ZM402.71 266.741V268.741H404.71V266.741H402.71ZM356.604 283.089V268.349H352.604V283.089H356.604ZM356.244 269.495L400.062 206.783L396.783 204.492L352.965 267.204L356.244 269.495ZM398.422 207.637H420.264V203.637H398.422V207.637ZM418.264 205.637V266.741H422.264V205.637H418.264ZM420.264 268.741H432.056V264.741H420.264V268.741ZM430.056 266.741V283.089H434.056V266.741H430.056ZM432.056 281.089H420.264V285.089H432.056V281.089ZM418.264 283.089V302.117H422.264V283.089H418.264ZM420.264 300.117H401.504V304.117H420.264V300.117ZM403.504 302.117V283.089H399.504V302.117H403.504ZM401.504 281.089H354.604V285.089H401.504V281.089ZM401.049 224.624L373.579 265.628L376.902 267.854L404.372 226.85L401.049 224.624ZM375.24 268.741H402.71V264.741H375.24V268.741ZM404.71 266.741V225.737H400.71V266.741H404.71Z" fill="#11121D"/>
<path d="M459.221 140.686C465.595 134.969 473.005 131.07 480.085 129.705C487.102 128.352 493.009 129.644 496.784 133.337L496.786 133.338L501.38 138.291C501.666 138.547 501.942 138.813 502.208 139.093C506.222 143.318 506.54 150.251 504.445 157.444C502.452 164.289 497.677 171.071 491.168 176.758C484.007 183.013 477.32 185.534 470.139 186.917C462.592 188.371 457.564 186.968 453.55 182.744C453.285 182.464 453.034 182.176 452.794 181.878L448.942 177.095C448.918 177.039 448.896 176.982 448.874 176.925C446.3 174.141 445.048 170.321 445.255 165.863C445.64 157.597 450.86 148.185 459.221 140.686ZM488.469 131.443C488.306 131.415 488.143 131.388 487.977 131.364C488.142 131.387 488.306 131.415 488.469 131.443ZM487.553 131.312C487.387 131.292 487.22 131.273 487.051 131.259C487.219 131.272 487.386 131.291 487.553 131.312ZM491.105 132.13C490.937 132.07 490.77 132.009 490.599 131.954C490.77 132.009 490.937 132.069 491.105 132.13ZM490.238 131.847C490.077 131.8 489.916 131.753 489.753 131.711C489.917 131.754 490.077 131.802 490.238 131.847ZM489.364 131.621C489.203 131.585 489.042 131.547 488.878 131.515C489.042 131.547 489.202 131.584 489.364 131.621ZM486.612 131.224C486.443 131.213 486.273 131.203 486.102 131.196C486.274 131.202 486.444 131.212 486.612 131.224ZM485.652 131.182C485.479 131.178 485.304 131.177 485.13 131.178C485.304 131.177 485.479 131.179 485.652 131.182ZM447.241 168.624C447.244 168.649 447.246 168.674 447.249 168.699C447.246 168.676 447.244 168.65 447.241 168.624ZM467.995 136.611C467.791 136.734 467.588 136.858 467.385 136.984C467.589 136.859 467.792 136.734 467.995 136.611ZM460.439 142.207C460.785 141.897 461.134 141.594 461.484 141.296C461.133 141.593 460.785 141.897 460.439 142.207ZM462.972 140.085C463.186 139.916 463.4 139.747 463.615 139.583C463.4 139.746 463.186 139.916 462.972 140.085ZM464.075 139.24C464.282 139.086 464.49 138.932 464.698 138.783C464.49 138.932 464.282 139.087 464.075 139.24ZM469.61 135.684C469.814 135.573 470.017 135.464 470.22 135.358C470.017 135.465 469.813 135.574 469.61 135.684ZM471.838 134.546C472.045 134.447 472.252 134.353 472.459 134.259C472.253 134.353 472.046 134.447 471.838 134.546ZM474.061 133.569C474.279 133.48 474.497 133.398 474.715 133.315C474.497 133.396 474.279 133.48 474.061 133.569ZM475.166 133.141C475.403 133.053 475.64 132.972 475.877 132.891C475.641 132.971 475.404 133.053 475.166 133.141ZM476.266 132.754C476.593 132.645 476.921 132.541 477.248 132.444C476.922 132.542 476.595 132.645 476.266 132.754ZM477.359 132.409C477.72 132.301 478.08 132.201 478.438 132.108C478.08 132.202 477.72 132.301 477.359 132.409ZM484.672 131.184C484.495 131.189 484.316 131.196 484.136 131.204C484.315 131.197 484.494 131.189 484.672 131.184ZM483.671 131.231C483.488 131.243 483.305 131.259 483.121 131.275C483.306 131.26 483.489 131.243 483.671 131.231ZM482.654 131.32C482.465 131.341 482.276 131.365 482.087 131.391C482.277 131.366 482.466 131.342 482.654 131.32ZM481.621 131.453C481.426 131.482 481.229 131.516 481.032 131.55C481.228 131.516 481.425 131.482 481.621 131.453ZM479.511 131.847C479.279 131.899 479.045 131.958 478.813 132.016C479.047 131.958 479.28 131.9 479.511 131.847ZM491.415 132.241C491.633 132.325 491.845 132.418 492.056 132.512C491.845 132.419 491.633 132.325 491.415 132.241ZM447.569 170.442C447.561 170.409 447.553 170.377 447.544 170.344C447.552 170.376 447.561 170.409 447.569 170.442ZM447.14 167.031C447.139 166.95 447.137 166.87 447.137 166.787C447.138 166.869 447.139 166.95 447.14 167.031Z" fill="#11121D"/>
<path d="M447.155 165.928C447.514 158.213 452.48 149.345 460.439 142.207C471.852 131.972 486.024 128.42 493.711 133.408C494.46 133.894 495.147 134.46 495.764 135.11C498.036 137.502 499.139 140.854 498.955 144.807C498.596 152.522 493.63 161.39 485.671 168.528C473.147 179.76 457.303 182.947 450.346 175.625C448.075 173.234 446.971 169.88 447.155 165.928Z" fill="white"/>
<path d="M454.542 162.713C454.791 157.343 458.403 150.909 463.965 145.919C472.055 138.664 482.075 136.123 487.484 139.632C488.007 139.972 488.486 140.367 488.916 140.819C490.491 142.476 491.254 144.805 491.126 147.556C490.876 152.926 487.265 159.361 481.703 164.35C472.831 172.306 461.64 174.596 456.751 169.448C455.178 167.794 454.414 165.464 454.542 162.713Z" fill="white"/>
<path d="M462.748 144.399C467.352 140.27 472.709 137.451 477.828 136.465C483.098 135.45 487.517 136.487 490.272 139.387C492.229 141.447 493.182 144.295 493.027 147.622C492.747 153.624 488.969 160.448 482.92 165.872C478.316 170.001 472.959 172.82 467.84 173.806C463.577 174.627 459.87 174.106 457.151 172.34C456.509 171.924 455.922 171.439 455.396 170.884C453.439 168.824 452.486 165.976 452.641 162.649C452.921 156.646 456.7 149.823 462.748 144.399ZM481.704 164.351C487.266 159.362 490.877 152.927 491.127 147.557C491.255 144.806 490.491 142.477 488.917 140.82C488.486 140.367 488.008 139.972 487.485 139.633C482.077 136.123 472.056 138.664 463.966 145.92C458.403 150.909 454.792 157.344 454.542 162.714C454.414 165.464 455.179 167.794 456.752 169.451C461.641 174.597 472.832 172.307 481.704 164.351Z" fill="#11121D"/>
<path d="M485.594 152.164L475.721 159.027L472.92 160.783L463.852 166.468L460.647 163.235L467.749 158.903L470.435 157.265L478.83 152.144L469.69 146.589L473.279 144.427L485.594 152.164Z" fill="#11121D"/>
<path d="M466.936 156.043L464.997 158.124L467.749 158.903L470.435 157.265L466.936 156.043Z" fill="#11121D"/>
<path d="M476.003 161.904L478.256 159.873L475.721 159.027L472.92 160.783L476.003 161.904Z" fill="#11121D"/>
<g filter="url(#filter0_f_1440_12228)">
<path d="M318.619 53.5721C315.48 57.614 313.436 62.2561 312.86 66.6434C312.29 70.9923 313.229 74.603 315.502 76.8526L315.503 76.854L318.539 79.5819C318.697 79.7527 318.861 79.9172 319.032 80.0751C321.625 82.4611 325.682 82.5155 329.816 81.079C333.75 79.7122 337.56 76.6341 340.677 72.5099C344.105 67.9733 345.367 63.804 345.95 59.3537C346.563 54.6768 345.587 51.6096 342.995 49.224C342.824 49.0661 342.648 48.9174 342.467 48.7759L339.554 46.5016C339.52 46.4877 339.486 46.4754 339.453 46.463C337.747 44.9349 335.477 44.2414 332.881 44.4598C328.067 44.8649 322.736 48.2714 318.619 53.5721ZM314.137 71.771C314.116 71.671 314.095 71.5714 314.076 71.4695C314.094 71.571 314.116 71.671 314.137 71.771ZM314.032 71.2094C314.015 71.1077 313.999 71.0054 313.985 70.9014C313.998 71.005 314.015 71.1073 314.032 71.2094ZM314.621 73.3801C314.58 73.2782 314.539 73.1765 314.502 73.0722C314.539 73.1765 314.58 73.2778 314.621 73.3801ZM314.428 72.8518C314.396 72.7539 314.363 72.6559 314.334 72.556C314.364 72.6563 314.397 72.7537 314.428 72.8518ZM314.269 72.3183C314.243 72.22 314.216 72.1218 314.192 72.0216C314.216 72.1218 314.242 72.2196 314.269 72.3183ZM313.951 70.6322C313.939 70.5279 313.928 70.4234 313.919 70.3182C313.928 70.424 313.939 70.5284 313.951 70.6322ZM313.897 70.0419C313.889 69.9355 313.883 69.8278 313.878 69.7205C313.883 69.8278 313.889 69.9349 313.897 70.0419ZM334.555 45.6266C334.57 45.6281 334.584 45.6285 334.599 45.63C334.585 45.6284 334.57 45.6275 334.555 45.6266ZM316.514 59.0582C316.58 58.93 316.646 58.8027 316.713 58.6752C316.646 58.8031 316.58 58.931 316.514 59.0582ZM319.545 54.2913C319.375 54.5105 319.209 54.7318 319.046 54.9536C319.208 54.7314 319.375 54.5105 319.545 54.2913ZM318.385 55.8942C318.293 56.0296 318.202 56.1651 318.112 56.3007C318.201 56.1646 318.293 56.0296 318.385 55.8942ZM317.927 56.591C317.843 56.7212 317.76 56.8525 317.679 56.9839C317.76 56.8525 317.844 56.7217 317.927 56.591ZM316.024 60.0715C315.965 60.1993 315.908 60.3264 315.852 60.4538C315.908 60.3269 315.965 60.1988 316.024 60.0715ZM315.429 61.4668C315.378 61.596 315.329 61.7254 315.281 61.8548C315.329 61.7259 315.377 61.5966 315.429 61.4668ZM314.928 62.8554C314.883 62.9918 314.842 63.1277 314.8 63.2637C314.841 63.1278 314.883 62.9918 314.928 62.8554ZM314.713 63.5447C314.669 63.6925 314.629 63.8398 314.589 63.9877C314.628 63.8404 314.668 63.6931 314.713 63.5447ZM314.521 64.2298C314.468 64.4337 314.417 64.6377 314.371 64.8407C314.418 64.6381 314.468 64.4347 314.521 64.2298ZM314.354 64.9099C314.302 65.1348 314.255 65.3579 314.212 65.5805C314.255 65.3583 314.302 65.1342 314.354 64.9099ZM313.867 69.438C313.864 69.3289 313.863 69.2185 313.862 69.1076C313.863 69.218 313.865 69.3283 313.867 69.438ZM313.863 68.8205C313.865 68.7078 313.868 68.5947 313.872 68.4811C313.869 68.5952 313.865 68.7088 313.863 68.8205ZM313.884 68.1926C313.89 68.0762 313.898 67.9589 313.907 67.8421C313.899 67.9593 313.89 68.0766 313.884 68.1926ZM313.929 67.5541C313.94 67.4335 313.953 67.3111 313.967 67.189C313.954 67.3105 313.94 67.4325 313.929 67.5541ZM314.093 66.2463C314.116 66.1024 314.143 65.9575 314.17 65.8135C314.143 65.9584 314.116 66.1034 314.093 66.2463ZM314.695 73.5687C314.751 73.7011 314.812 73.8298 314.874 73.9578C314.812 73.8302 314.751 73.7011 314.695 73.5687ZM335.627 45.7912C335.607 45.787 335.588 45.7825 335.569 45.7783C335.588 45.7821 335.607 45.787 335.627 45.7912ZM333.622 45.5968C333.574 45.598 333.528 45.598 333.48 45.5997C333.527 45.5985 333.574 45.598 333.622 45.5968Z" fill="#11121D"/>
<path d="M332.979 45.6286C328.486 46.0069 323.464 49.2455 319.546 54.2918C313.927 61.5282 312.296 70.3272 315.449 74.9593C315.756 75.4103 316.108 75.8218 316.507 76.1886C317.974 77.5391 319.965 78.1499 322.267 77.956C326.76 77.5777 331.782 74.3391 335.701 69.2928C341.866 61.3522 343.232 51.5311 338.74 47.396C337.273 46.0465 335.281 45.4353 332.979 45.6286Z" fill="white"/>
<path d="M331.333 50.2409C328.206 50.504 324.562 52.8588 321.823 56.3855C317.84 61.5147 316.67 67.7369 318.888 70.9964C319.102 71.3111 319.348 71.5983 319.625 71.8539C320.642 72.7896 322.025 73.212 323.628 73.0774C326.755 72.8143 330.398 70.4594 333.137 66.9327C337.505 61.308 338.492 54.3698 335.334 51.4645C334.319 50.5297 332.935 50.1062 331.333 50.2409Z" fill="white"/>
<path d="M320.897 55.6675C318.63 58.5869 317.152 61.9428 316.736 65.1153C316.309 68.381 317.052 71.0809 318.831 72.7183C320.095 73.8817 321.788 74.4102 323.725 74.2472C327.22 73.9527 331.086 71.4874 334.063 67.652C336.33 64.7325 337.808 61.3767 338.224 58.2041C338.57 55.5624 338.15 53.2906 337.035 51.6523C336.771 51.2655 336.47 50.9138 336.129 50.6011C334.865 49.4378 333.173 48.9093 331.236 49.0722C327.74 49.3673 323.875 51.833 320.897 55.6675ZM333.138 66.9338C330.399 70.4605 326.755 72.8154 323.628 73.0785C322.026 73.2131 320.642 72.7901 319.626 71.855C319.347 71.5989 319.102 71.3122 318.888 70.9974C316.67 67.7386 317.84 61.516 321.823 56.3866C324.562 52.8595 328.206 50.5051 331.333 50.242C332.935 50.1069 334.318 50.5303 335.335 51.4654C338.492 54.3709 337.505 61.3091 333.138 66.9338Z" fill="#11121D"/>
<path d="M324.94 59.6494L324.917 59.6778C323.544 58.9196 322.41 59.1742 321.713 60.0154C321.004 60.8698 320.937 62.0298 321.294 63.0919C321.485 63.7421 321.787 64.3416 322.245 64.9944L321.052 66.4321L322.032 67.509L323.161 66.1487C323.297 66.3065 323.442 66.4691 323.595 66.6377C323.82 66.8855 324.052 67.1324 324.285 67.3733L323.152 68.7392L324.131 69.8153L325.309 68.3959C325.767 68.8342 326.178 69.1983 326.473 69.4253L334.171 60.1465C333.942 59.8212 333.62 59.3924 333.202 58.8811L334.226 57.6464L333.248 56.5703L332.251 57.7709C332.174 57.6842 332.095 57.5967 332.014 57.5077C331.699 57.1622 331.399 56.8505 331.11 56.5668L332.128 55.3401L331.148 54.2632L330.037 55.6024C329.117 54.8603 328.336 54.4675 327.652 54.3492C326.677 54.1901 325.734 54.4392 325.024 55.2936C324.012 56.5126 324.123 58.1884 324.94 59.6494ZM325.566 65.7227C325.364 65.5546 325.079 65.2945 324.625 64.7948C323.673 63.7495 323.449 62.7804 324.043 62.0653C324.624 61.3649 325.6 61.5529 326.703 62.7649L327.392 63.5222L325.566 65.7227ZM330.078 58.41C330.437 58.8036 330.685 59.0768 330.868 59.3316L328.659 61.9953L327.942 61.2077C326.895 60.0572 326.368 58.7542 327.159 57.8009C327.985 56.805 329.127 57.3647 330.078 58.41Z" fill="#11121D"/>
</g>
<path d="M201.805 141.192C196.879 137.168 191.174 134.485 185.74 133.635C180.354 132.793 175.839 133.849 172.974 136.605L172.972 136.606L169.489 140.294C169.272 140.486 169.063 140.684 168.861 140.893C165.817 144.04 165.625 149.081 167.283 154.261C168.861 159.191 172.569 164.02 177.598 168.018C183.13 172.417 188.272 174.113 193.783 174.975C199.576 175.88 203.417 174.761 206.46 171.614C206.662 171.405 206.852 171.191 207.033 170.97L209.949 167.421C209.967 167.379 209.983 167.338 210 167.296C211.951 165.223 212.882 162.425 212.69 159.192C212.335 153.198 208.265 146.469 201.805 141.192ZM179.33 135.065C179.455 135.041 179.579 135.018 179.706 134.998C179.58 135.018 179.455 135.041 179.33 135.065ZM180.031 134.951C180.158 134.933 180.285 134.916 180.415 134.902C180.286 134.916 180.158 134.933 180.031 134.951ZM177.315 135.616C177.443 135.569 177.571 135.521 177.702 135.478C177.571 135.521 177.444 135.569 177.315 135.616ZM177.978 135.394C178.101 135.356 178.223 135.318 178.348 135.285C178.223 135.319 178.101 135.357 177.978 135.394ZM178.646 135.212C178.769 135.182 178.891 135.152 179.017 135.125C178.891 135.152 178.769 135.182 178.646 135.212ZM180.75 134.869C180.88 134.857 181.011 134.847 181.142 134.838C181.01 134.846 180.88 134.856 180.75 134.869ZM181.486 134.819C181.618 134.813 181.752 134.809 181.886 134.805C181.752 134.809 181.619 134.813 181.486 134.819ZM211.189 161.236C211.187 161.255 211.186 161.273 211.184 161.291C211.186 161.274 211.188 161.255 211.189 161.236ZM195.053 138.408C195.21 138.493 195.366 138.579 195.523 138.667C195.366 138.58 195.209 138.493 195.053 138.408ZM200.883 142.32C200.616 142.102 200.346 141.889 200.076 141.679C200.347 141.888 200.616 142.102 200.883 142.32ZM198.927 140.83C198.762 140.712 198.596 140.593 198.43 140.478C198.597 140.593 198.762 140.712 198.927 140.83ZM198.075 140.239C197.916 140.131 197.756 140.023 197.595 139.919C197.756 140.023 197.916 140.132 198.075 140.239ZM193.809 137.768C193.652 137.691 193.496 137.616 193.339 137.543C193.495 137.616 193.653 137.691 193.809 137.768ZM192.094 136.985C191.935 136.918 191.775 136.854 191.616 136.79C191.775 136.853 191.934 136.918 192.094 136.985ZM190.383 136.32C190.215 136.26 190.048 136.205 189.88 136.149C190.048 136.204 190.215 136.26 190.383 136.32ZM189.534 136.032C189.351 135.973 189.169 135.919 188.987 135.864C189.169 135.918 189.351 135.972 189.534 136.032ZM188.688 135.773C188.436 135.7 188.185 135.632 187.934 135.567C188.184 135.632 188.435 135.7 188.688 135.773ZM187.848 135.544C187.57 135.473 187.295 135.408 187.019 135.347C187.294 135.408 187.571 135.473 187.848 135.544ZM182.237 134.801C182.372 134.8 182.51 134.802 182.648 134.805C182.51 134.803 182.373 134.801 182.237 134.801ZM183.004 134.815C183.144 134.82 183.285 134.828 183.426 134.836C183.284 134.828 183.143 134.82 183.004 134.815ZM183.784 134.86C183.928 134.871 184.074 134.885 184.219 134.899C184.073 134.885 183.928 134.871 183.784 134.86ZM184.576 134.935C184.725 134.953 184.877 134.973 185.028 134.994C184.878 134.973 184.727 134.952 184.576 134.935ZM186.196 135.179C186.374 135.213 186.553 135.25 186.731 135.288C186.552 135.25 186.373 135.213 186.196 135.179ZM177.079 135.703C176.913 135.768 176.751 135.84 176.59 135.913C176.75 135.84 176.913 135.768 177.079 135.703ZM210.952 162.563C210.958 162.539 210.964 162.516 210.97 162.491C210.964 162.515 210.958 162.539 210.952 162.563ZM211.255 160.078C211.255 160.019 211.256 159.961 211.256 159.901C211.256 159.96 211.255 160.019 211.255 160.078Z" fill="#11121D"/>
<path d="M211.236 159.276C210.904 153.682 207.034 147.342 200.884 142.319C192.064 135.116 181.181 132.82 175.329 136.595C174.759 136.963 174.237 137.387 173.769 137.872C172.046 139.653 171.226 142.109 171.396 144.975C171.729 150.57 175.599 156.909 181.749 161.932C191.426 169.837 203.588 171.835 208.863 166.38C210.585 164.598 211.406 162.142 211.236 159.276Z" fill="white"/>
<path d="M205.553 157.091C205.322 153.197 202.508 148.597 198.209 145.086C191.958 139.98 184.263 138.335 180.145 140.991C179.747 141.248 179.383 141.544 179.057 141.881C177.863 143.115 177.296 144.822 177.414 146.816C177.645 150.71 180.459 155.31 184.757 158.821C191.612 164.421 200.203 165.86 203.91 162.025C205.102 160.792 205.671 159.086 205.553 157.091Z" fill="white"/>
<path d="M199.13 143.957C195.572 141.051 191.448 139.111 187.518 138.498C183.474 137.866 180.096 138.707 178.007 140.867C176.523 142.402 175.814 144.489 175.957 146.901C176.216 151.253 179.161 156.132 183.835 159.949C187.393 162.855 191.518 164.795 195.447 165.409C198.719 165.92 201.554 165.467 203.624 164.131C204.113 163.816 204.559 163.452 204.958 163.039C206.442 161.504 207.151 159.418 207.008 157.005C206.749 152.653 203.803 147.775 199.13 143.957ZM184.756 158.821C180.458 155.309 177.644 150.71 177.413 146.816C177.294 144.821 177.862 143.115 179.055 141.881C179.382 141.543 179.746 141.247 180.144 140.99C184.261 138.334 191.957 139.979 198.208 145.086C202.507 148.596 205.321 153.197 205.552 157.09C205.67 159.084 205.102 160.791 203.909 162.026C200.202 165.859 191.611 164.42 184.756 158.821Z" fill="#11121D"/>
<path d="M194.061 148.859L194.026 148.829C195.011 147.147 194.729 145.73 193.705 144.838C192.665 143.93 191.226 143.812 189.895 144.223C189.082 144.44 188.327 144.797 187.502 145.346L185.752 143.82L184.384 145.005L186.04 146.449C185.84 146.613 185.633 146.788 185.419 146.973C185.104 147.246 184.79 147.526 184.484 147.808L182.821 146.359L181.454 147.542L183.182 149.048C182.623 149.605 182.158 150.104 181.867 150.464L193.16 160.313C193.572 160.039 194.114 159.652 194.762 159.148L196.265 160.459L197.632 159.276L196.171 158.001C196.281 157.907 196.392 157.813 196.505 157.714C196.944 157.334 197.341 156.97 197.702 156.62L199.195 157.922L200.563 156.737L198.933 155.316C199.884 154.195 200.396 153.238 200.564 152.391C200.791 151.185 200.511 150.005 199.471 149.097C197.987 147.801 195.901 147.889 194.061 148.859ZM186.495 149.451C186.71 149.204 187.042 148.858 187.677 148.309C189.005 147.159 190.216 146.91 191.087 147.67C191.939 148.413 191.676 149.621 190.136 150.954L189.174 151.787L186.495 149.451ZM195.443 155.282C194.943 155.715 194.596 156.015 194.274 156.235L191.032 153.408L192.033 152.542C193.494 151.276 195.13 150.661 196.29 151.673C197.502 152.729 196.771 154.132 195.443 155.282Z" fill="#11121D"/>
<path d="M155.129 267.646C159.068 273.73 162.192 280.252 164.281 287.206C165.342 290.732 166.119 294.605 164.412 298.19C162.547 302.105 158.013 304.862 153.38 306.161C142.062 309.336 130.235 304.936 123 297.793C115.765 290.651 112.208 281.194 108.904 271.939C106.303 264.653 103.73 257.25 99.3093 250.734C97.4134 247.941 86.7198 237.625 91.2066 233.948C97.3352 228.762 116.219 230.886 128.862 240.34C139.275 248.126 148.395 257.244 155.129 267.646Z" fill="#11121D"/>
<path d="M106.127 240.849C106.551 240.46 107.227 240.411 107.635 240.739C125.205 254.851 136.981 271.786 143.767 283.509C143.804 283.574 143.84 283.636 143.877 283.699C143.301 275.886 140.64 259.69 128.755 249.113C128.388 248.786 128.43 248.236 128.847 247.884C129.266 247.532 129.902 247.511 130.268 247.837C138.956 255.568 142.78 266.107 144.458 273.587C145.993 280.431 146.067 285.906 146.047 287.583C151.794 298.191 154.373 305.732 154.401 305.818C154.561 306.29 154.231 306.826 153.664 307.014C153.659 307.015 153.654 307.017 153.649 307.018C153.088 307.196 152.508 306.965 152.349 306.497C152.294 306.333 149.779 299.053 144.162 288.678C144.128 288.629 144.099 288.577 144.077 288.522C142.005 284.705 139.515 280.476 136.576 276.031C133.852 276.535 125.552 276.922 116.759 265.884C116.46 265.507 116.597 264.961 117.066 264.662C117.534 264.362 118.158 264.426 118.457 264.802C125.793 274.011 132.623 274.656 135.503 274.427C128.344 263.868 118.682 252.252 106.101 242.147C105.691 241.819 105.704 241.238 106.127 240.849Z" fill="white"/>
<path d="M488.287 231.079C492.735 223.326 497.649 216.402 503.154 210.158C512.157 199.952 521.049 195.05 529.601 195.576C529.798 195.589 529.997 195.603 530.194 195.622C532.833 195.861 534.851 196.64 536.192 197.942C538.942 200.614 538.529 205.405 536.541 208.496C534.291 211.993 530.345 214.231 526.781 215.956C522.387 218.084 517.734 219.905 513.24 221.668C507.465 223.931 501.493 226.268 495.927 229.3C494.582 230.033 493.287 230.807 492.038 231.611C479.963 244.184 465.026 262.565 458.188 282.225C456.729 286.423 455.877 290.013 455.39 292.93C459.736 285.706 469.289 275.47 490.122 267.622C497.137 262.828 504.222 258.906 511.525 255.763C524.032 250.385 534.17 249.752 541.672 253.883C541.844 253.978 542.017 254.075 542.187 254.177C544.471 255.521 545.96 257.089 546.613 258.839C547.952 262.429 545.526 266.586 542.407 268.529C538.874 270.73 534.349 271.065 530.389 271.102C525.507 271.147 520.523 270.805 515.705 270.478C509.517 270.055 503.118 269.617 496.79 269.98C494.82 270.092 492.898 270.3 491.026 270.587C491.023 270.588 491.023 270.588 491.021 270.589C491.892 270.87 492.893 271.241 494.034 271.736C499.189 272.629 504.046 273.903 508.687 275.589C517.43 278.767 522.766 283.198 524.557 288.763C524.599 288.893 524.639 289.02 524.676 289.151C525.181 290.887 525.185 292.364 524.69 293.542C523.671 295.954 520.515 296.887 518.05 296.392C515.262 295.834 512.855 293.883 510.87 292.047C508.421 289.786 506.103 287.281 503.861 284.863C500.984 281.757 498.009 278.545 494.692 275.762C494.374 275.496 494.055 275.236 493.734 274.982C488.949 272.771 486.785 272.829 486.678 272.834C486.395 272.862 486.124 272.803 485.883 272.692C473.362 278.218 466.038 284.486 461.861 289.345C455.753 296.454 454.891 302.136 454.879 302.21C454.875 302.237 454.865 302.263 454.86 302.29C454.849 302.345 454.837 302.397 454.823 302.448C454.809 302.495 454.793 302.541 454.773 302.586C454.755 302.633 454.733 302.677 454.71 302.721C454.686 302.766 454.66 302.809 454.632 302.85C454.605 302.89 454.577 302.929 454.545 302.967C454.514 303.005 454.482 303.041 454.447 303.078C454.412 303.115 454.376 303.147 454.337 303.18C454.3 303.211 454.264 303.239 454.224 303.266C454.183 303.294 454.139 303.321 454.095 303.346C454.052 303.371 454.006 303.391 453.961 303.41C453.917 303.429 453.872 303.447 453.825 303.462C453.772 303.479 453.718 303.492 453.665 303.505C453.637 303.51 453.612 303.52 453.585 303.526C453.569 303.528 453.554 303.524 453.538 303.526C453.437 303.539 453.332 303.542 453.224 303.533C453.202 303.531 453.179 303.535 453.16 303.531C453.156 303.53 453.154 303.531 453.149 303.531C453.035 303.516 452.93 303.485 452.826 303.449C452.813 303.444 452.798 303.444 452.786 303.439C452.786 303.439 452.786 303.439 452.784 303.438C452.782 303.438 452.784 303.438 452.782 303.438C452.671 303.394 452.571 303.334 452.474 303.269C452.453 303.254 452.431 303.239 452.412 303.223C452.32 303.153 452.235 303.074 452.16 302.986C452.151 302.973 452.143 302.96 452.133 302.948C452.068 302.863 452.013 302.772 451.967 302.676C451.956 302.655 451.943 302.634 451.935 302.612C451.888 302.503 451.854 302.386 451.833 302.267C451.831 302.257 451.827 302.25 451.825 302.24C451.776 301.931 450.703 294.519 455.168 281.516C461.85 262.059 476.209 243.897 488.287 231.079Z" fill="#11121D"/>
<path d="M525.74 207.66C524.062 207.002 523.237 205.11 523.897 203.434C524.556 201.758 526.451 200.933 528.129 201.591C529.807 202.25 530.633 204.142 529.973 205.818C529.313 207.494 527.418 208.319 525.74 207.66Z" fill="white"/>
<path d="M531.955 265.395C530.277 264.736 529.451 262.844 530.111 261.168C530.771 259.492 532.666 258.667 534.344 259.326C536.022 259.984 536.847 261.876 536.188 263.552C535.528 265.228 533.633 266.053 531.955 265.395Z" fill="white"/>
<path d="M516.892 291.452C515.494 290.904 514.806 289.327 515.356 287.931C515.906 286.534 517.485 285.847 518.883 286.395C520.281 286.944 520.969 288.521 520.419 289.917C519.869 291.314 518.29 292.001 516.892 291.452Z" fill="white"/>
<ellipse cx="306" cy="368.998" rx="44" ry="29" fill="white"/>
<path d="M310.137 346.502C301.765 345.646 293.513 346.704 286.904 349.481C280.101 352.34 275.811 356.691 274.822 361.735C274.12 365.319 275.16 368.972 277.828 372.299C282.643 378.301 292.083 382.558 303.081 383.682C311.452 384.538 319.705 383.481 326.314 380.703C331.817 378.39 335.677 375.101 337.473 371.258C337.897 370.351 338.207 369.413 338.395 368.449C339.097 364.866 338.057 361.213 335.39 357.886C330.573 351.883 321.133 347.628 310.137 346.502ZM303.337 381.206C293.224 380.171 284.265 376.192 279.959 370.822C278.991 369.616 278.281 368.366 277.836 367.099C277.267 365.479 277.132 363.831 277.449 362.213C277.603 361.425 277.857 360.661 278.202 359.923C281.776 352.279 295.169 347.474 309.879 348.979C319.992 350.014 328.951 353.993 333.257 359.363C334.119 360.437 334.776 361.546 335.224 362.67C335.279 362.809 335.331 362.947 335.38 363.086C335.949 364.707 336.083 366.355 335.767 367.972C334.014 376.923 319.466 382.856 303.337 381.206Z" fill="#11121D"/>
<path d="M307.393 358.253L307.31 358.242C307.101 354.913 305.233 353.143 302.768 352.816C300.262 352.483 297.95 353.653 296.339 355.481C295.321 356.55 294.534 357.764 293.835 359.321L289.62 358.76L288.739 361.733L292.727 362.263C292.589 362.686 292.453 363.129 292.314 363.594C292.111 364.278 291.918 364.973 291.737 365.661L287.733 365.13L286.852 368.101L291.014 368.653C290.728 369.972 290.527 371.12 290.449 371.909L317.655 375.522C318.003 374.747 318.437 373.686 318.912 372.359L322.533 372.841L323.413 369.871L319.893 369.403C319.965 369.166 320.038 368.927 320.11 368.68C320.393 367.726 320.627 366.835 320.822 365.996L324.419 366.474L325.3 363.5L321.373 362.979C321.683 360.487 321.49 358.637 320.886 357.266C320.008 355.324 318.382 353.892 315.876 353.559C312.3 353.081 309.211 355.148 307.393 358.253ZM296.47 366.146C296.547 365.592 296.702 364.786 297.111 363.407C297.966 360.522 299.558 359.037 301.655 359.316C303.709 359.589 304.534 361.567 303.542 364.913L302.923 367.003L296.47 366.146ZM316.022 366.179C315.701 367.266 315.477 368.02 315.209 368.635L307.4 367.598L308.044 365.424C308.985 362.248 310.851 359.843 313.647 360.214C316.566 360.601 316.878 363.294 316.022 366.179Z" fill="#11121D"/>
<path fill-rule="evenodd" clip-rule="evenodd" d="M279.256 344.161C288.396 340.322 299.811 338.858 311.402 340.045C326.602 341.601 339.635 347.465 346.265 355.732C349.84 360.19 351.264 365.072 350.397 369.861C350.414 369.936 350.432 370.011 350.446 370.088L349.61 377.893C349.558 378.379 349.486 378.863 349.391 379.35C347.951 386.697 343.236 391.879 333.494 395.974C324.223 399.869 314.667 402.223 301.774 401.063C290.052 400.009 279.499 396.534 272.089 390.931C264.302 385.044 259.475 377.635 260.915 370.286C261.011 369.799 261.128 369.319 261.264 368.842L262.823 360.31L262.825 360.307C264.39 353.686 270.196 347.968 279.256 344.161ZM277.836 367.099C278.281 368.365 278.991 369.614 279.959 370.821C284.265 376.191 293.224 380.169 303.337 381.205C319.466 382.855 334.014 376.921 335.766 367.969C336.083 366.354 335.949 364.707 335.38 363.086C335.331 362.947 335.279 362.809 335.224 362.67C334.776 361.546 334.119 360.437 333.257 359.363C328.951 353.993 319.992 350.014 309.879 348.979C295.169 347.474 281.776 352.279 278.202 359.923C277.857 360.661 277.603 361.425 277.449 362.213C277.132 363.831 277.267 365.479 277.836 367.099ZM307.31 358.242L307.393 358.253C309.211 355.148 312.3 353.081 315.876 353.559C318.382 353.892 320.008 355.324 320.886 357.266C321.49 358.637 321.683 360.487 321.373 362.979L325.3 363.5L324.419 366.474L320.822 365.996C320.627 366.835 320.393 367.726 320.11 368.68C320.038 368.927 319.965 369.166 319.893 369.403L323.413 369.871L322.533 372.841L318.912 372.359C318.437 373.686 318.003 374.747 317.655 375.522L290.449 371.909C290.527 371.12 290.728 369.972 291.014 368.653L286.852 368.101L287.733 365.13L291.737 365.661C291.918 364.973 292.111 364.278 292.314 363.594C292.453 363.129 292.589 362.686 292.727 362.263L288.739 361.733L289.62 358.76L293.835 359.321C294.534 357.764 295.321 356.55 296.339 355.481C297.95 353.653 300.262 352.483 302.768 352.816C305.233 353.143 307.101 354.913 307.31 358.242ZM315.209 368.635C315.477 368.02 315.701 367.266 316.022 366.179C316.878 363.294 316.566 360.601 313.647 360.214C310.851 359.843 308.985 362.248 308.044 365.424L307.4 367.598L315.209 368.635ZM296.47 366.146C296.547 365.592 296.702 364.786 297.111 363.407C297.966 360.522 299.558 359.037 301.655 359.316C303.709 359.589 304.534 361.567 303.542 364.913L302.923 367.003L296.47 366.146ZM309.262 342.354C309.887 342.403 310.515 342.458 311.144 342.522C325.614 344.002 337.948 349.492 344.136 357.208C347.304 361.161 348.55 365.449 347.736 369.607C345.24 382.344 324.686 390.8 301.916 388.47C287.446 386.99 275.112 381.5 268.924 373.784C265.754 369.831 264.508 365.545 265.324 361.385C265.544 360.255 265.908 359.159 266.403 358.101C268.966 352.621 275.048 348.165 283.11 345.367L282.943 345.426C283.15 345.353 283.359 345.281 283.57 345.21C284.203 344.997 284.849 344.794 285.505 344.602C285.187 344.695 284.872 344.792 284.559 344.89C284.99 344.756 285.425 344.624 285.867 344.497C285.884 344.493 285.901 344.488 285.917 344.483L285.867 344.497C293.258 342.387 302.023 341.589 311.144 342.522C310.515 342.458 309.887 342.401 309.262 342.354ZM270.942 352.18C271.109 352.03 271.275 351.881 271.448 351.733C271.275 351.88 271.109 352.03 270.942 352.18ZM271.895 351.364C272.07 351.221 272.247 351.078 272.431 350.936C272.247 351.076 272.07 351.219 271.895 351.364ZM268.515 354.744C268.635 354.591 268.755 354.438 268.882 354.288C268.736 354.461 268.598 354.637 268.459 354.814L268.434 354.846C268.461 354.812 268.488 354.778 268.515 354.744ZM269.346 353.766C269.303 353.814 269.26 353.862 269.217 353.91C269.366 353.742 269.515 353.574 269.671 353.409C269.559 353.528 269.453 353.647 269.346 353.766ZM270.15 352.927C270.274 352.804 270.398 352.68 270.527 352.558C270.369 352.707 270.219 352.858 270.068 353.01L270.05 353.028C270.083 352.994 270.117 352.961 270.15 352.927ZM272.907 350.576C273.094 350.438 273.281 350.302 273.472 350.168C273.28 350.302 273.092 350.438 272.907 350.576ZM346.054 360.061C346.069 360.09 346.086 360.117 346.101 360.145C346.088 360.118 346.071 360.09 346.054 360.061ZM298.289 342.338C298.615 342.313 298.941 342.291 299.268 342.271C298.94 342.293 298.613 342.314 298.289 342.338ZM275.103 349.095C275.308 348.968 275.519 348.844 275.731 348.719C275.52 348.844 275.31 348.968 275.103 349.095ZM277.519 347.739C277.75 347.62 277.986 347.505 278.222 347.391C277.986 347.506 277.75 347.621 277.519 347.739ZM281.518 345.952C281.822 345.834 282.132 345.721 282.441 345.61C282.131 345.723 281.82 345.835 281.518 345.952ZM347.04 362.185C347.024 362.145 347.01 362.106 346.994 362.066C347.01 362.105 347.024 362.145 347.04 362.185ZM344.907 358.237C344.93 358.271 344.954 358.305 344.978 358.338C344.948 358.296 344.918 358.254 344.888 358.211C344.859 358.169 344.829 358.126 344.799 358.084C344.836 358.135 344.872 358.186 344.907 358.237ZM310.137 346.502C301.765 345.646 293.513 346.704 286.904 349.481C280.101 352.34 275.811 356.691 274.822 361.735C274.12 365.319 275.16 368.972 277.828 372.299C282.643 378.301 292.083 382.558 303.081 383.682C311.452 384.538 319.705 383.481 326.314 380.703C331.817 378.39 335.677 375.101 337.473 371.258C337.897 370.351 338.207 369.413 338.395 368.449C339.097 364.866 338.057 361.213 335.39 357.886C330.573 351.883 321.133 347.628 310.137 346.502Z" fill="#11121D"/>
<path d="M300.285 388.627L261.251 397.573L263.575 405.429L306.506 392.731L303.392 369.24L323.818 362.044L323.284 340.926L319.201 337.185L317.66 357.697L298.264 364.866L300.285 388.627Z" fill="#F0EEFF"/>
<defs>
<filter id="filter0_f_1440_12228" x="311.698" y="43.4199" width="35.4301" height="39.6191" filterUnits="userSpaceOnUse" color-interpolation-filters="sRGB">
<feFlood flood-opacity="0" result="BackgroundImageFix"/>
<feBlend mode="normal" in="SourceGraphic" in2="BackgroundImageFix" result="shape"/>
<feGaussianBlur stdDeviation="0.5" result="effect1_foregroundBlur_1440_12228"/>
</filter>
</defs>
</svg>
